<?xml version="1.0" standalone="no"?>
<!DOCTYPE svg PUBLIC "-//W3C//DTD SVG 20010904//EN"
 "http://www.w3.org/TR/2001/REC-SVG-20010904/DTD/svg10.dtd">
<svg version="1.0" xmlns="http://www.w3.org/2000/svg"
 width="512.000000pt" height="512.000000pt" viewBox="0 0 512.000000 512.000000"
 preserveAspectRatio="xMidYMid meet">
<metadata>
Created by potrace 1.16, written by Peter Selinger 2001-2019
</metadata>
<g transform="translate(0.000000,512.000000) scale(0.100000,-0.100000)"
fill="#000000" stroke="none">
<path d="M2290 4859 l35 -6 -31 -2 c-118 -5 -422 -82 -580 -146 -111 -46 -125
-50 -94 -31 30 18 21 21 -14 5 -14 -7 -23 -15 -21 -19 2 -4 -12 -14 -31 -24
-20 -9 -32 -11 -29 -6 4 6 -21 -3 -54 -20 -38 -19 -59 -35 -55 -42 4 -7 3 -8
-5 -4 -14 9 -110 -50 -241 -148 -112 -83 -371 -332 -364 -350 2 -7 -8 -23 -23
-36 l-28 -25 25 30 25 30 -27 -24 c-15 -13 -24 -29 -22 -35 3 -7 -3 -19 -13
-27 -17 -13 -17 -13 -3 6 15 20 14 20 -8 1 -23 -20 -30 -32 -12 -21 17 10 11
-12 -7 -26 -15 -12 -16 -12 -8 1 8 13 7 13 -8 1 -18 -15 -23 -26 -7 -16 17 10
11 -12 -7 -26 -14 -12 -16 -12 -8 0 5 10 4 12 -4 7 -6 -4 -9 -11 -6 -16 5 -8
-62 -120 -72 -120 -2 0 -1 5 2 10 3 6 4 10 2 10 -9 0 -39 -53 -41 -74 -3 -23
-23 -66 -32 -66 -2 0 1 10 7 23 9 17 9 20 -1 10 -7 -6 -14 -22 -15 -35 -4 -38
-5 -39 -13 -34 -5 3 -16 -11 -26 -30 -9 -20 -12 -33 -6 -29 11 7 6 -9 -35
-100 -15 -33 -45 -112 -66 -175 -21 -63 -39 -106 -39 -95 -1 17 -3 16 -9 -5
-18 -60 -22 -85 -10 -70 8 12 10 10 5 -10 -4 -14 -14 -70 -23 -125 -10 -55
-23 -104 -30 -108 -7 -4 -12 -22 -12 -40 l2 -32 7 35 c4 20 6 -6 3 -60 -2 -52
-7 -106 -10 -120 -9 -41 -10 -164 -1 -176 5 -6 9 -74 11 -150 1 -76 5 -125 8
-109 4 19 7 23 8 10 1 -11 3 -38 6 -60 4 -32 3 -35 -4 -15 -7 20 -9 21 -9 5 0
-11 4 -33 8 -50 7 -28 8 -29 10 -5 1 14 10 -12 21 -56 26 -114 74 -263 121
-371 22 -51 36 -98 32 -104 -5 -8 -3 -9 6 -4 10 6 12 4 7 -9 -5 -11 -3 -15 5
-10 8 5 9 2 5 -10 -5 -11 -3 -15 5 -10 8 5 9 2 5 -10 -5 -11 -3 -15 5 -10 8 5
9 2 5 -10 -4 -10 -3 -15 3 -11 5 3 19 -13 30 -36 12 -22 16 -38 10 -34 -7 4
-5 -7 4 -24 9 -17 19 -31 22 -31 2 0 0 9 -6 20 -19 35 -3 21 20 -17 16 -27 17
-33 5 -23 -12 10 -11 4 5 -23 23 -38 39 -52 20 -17 -6 11 -9 20 -6 20 6 0 71
-104 71 -115 0 -12 35 -63 35 -51 0 5 9 1 20 -9 12 -10 19 -24 16 -31 -2 -6 7
-22 22 -35 l27 -24 -25 30 -25 30 28 -25 c15 -13 26 -29 23 -36 -4 -11 38 -64
51 -64 4 0 -6 15 -23 32 l-29 33 37 -34 c21 -19 34 -39 31 -44 -3 -6 -2 -7 4
-4 5 3 47 -33 94 -81 46 -48 69 -73 51 -57 -17 16 -32 25 -31 19 1 -29 391
-309 416 -299 8 2 11 0 8 -5 -6 -10 68 -52 100 -55 11 -1 24 -3 28 -4 5 0 5
-6 1 -13 -4 -7 -3 -8 4 -4 7 4 20 2 29 -3 10 -6 14 -11 8 -11 -12 -1 56 -39
70 -39 6 0 -6 8 -25 19 -52 29 -34 24 58 -15 77 -32 220 -79 320 -105 23 -6
40 -15 37 -20 -4 -6 1 -10 10 -10 9 0 14 4 11 8 -8 14 97 -9 115 -24 8 -8 26
-14 40 -13 l24 1 -25 8 c-22 7 -23 8 -4 9 12 1 27 -6 34 -14 7 -8 27 -14 44
-14 l31 1 -30 9 c-21 5 -13 7 30 3 33 -2 79 -5 103 -6 24 -1 45 -5 47 -8 3 -6
102 -4 215 5 44 3 48 2 20 -4 -32 -8 -30 -8 20 -9 39 0 49 2 35 8 -19 8 -19 9
2 9 12 1 30 4 40 7 15 5 15 4 3 -5 -12 -9 -9 -11 16 -11 17 0 37 7 44 15 7 8
20 15 29 14 12 0 11 -2 -4 -9 -18 -8 -17 -9 7 -9 14 -1 28 4 30 11 5 13 166
48 170 37 2 -4 16 -5 33 -2 25 5 27 7 10 13 -17 6 -16 7 7 12 15 3 25 1 22 -3
-3 -5 2 -9 11 -9 9 0 14 4 11 9 -3 5 8 14 24 20 18 6 28 6 25 1 -4 -6 -2 -10
3 -10 6 0 12 7 16 15 3 8 10 15 16 15 7 0 60 19 118 43 130 51 136 53 92 28
-43 -25 -34 -27 14 -4 19 9 33 20 31 24 -3 4 2 10 11 13 8 3 12 2 9 -4 -3 -6
1 -7 9 -4 9 3 14 9 11 13 -2 4 12 15 31 25 22 10 33 12 28 4 -4 -6 19 3 52 21
79 45 224 139 224 146 0 4 -5 3 -12 -1 -7 -4 -8 -3 -4 5 4 6 12 9 17 5 5 -3
43 22 85 55 77 61 221 193 194 176 -13 -8 -13 -6 -1 8 7 9 17 14 22 11 5 -3 7
1 4 8 -2 7 28 47 68 88 74 77 68 64 -13 -26 -25 -28 -13 -17 27 24 39 40 70
79 67 86 -3 7 6 21 18 32 l23 19 -20 -25 -20 -25 22 18 c12 11 19 24 17 31 -3
7 3 19 13 27 17 13 17 13 3 -6 -14 -19 -14 -19 2 -6 10 7 15 17 13 22 -5 7 82
149 92 149 2 0 1 -5 -3 -12 -4 -7 -3 -8 5 -4 6 4 9 11 6 16 -8 12 65 141 76
134 5 -3 6 3 2 12 -4 12 -3 15 5 10 8 -5 10 -1 5 10 -4 12 -3 15 5 10 8 -5 10
-1 5 10 -4 12 -3 15 5 10 8 -5 10 -1 5 10 -3 10 -2 15 3 12 5 -4 10 4 10 15 1
12 22 72 48 132 58 141 109 328 137 502 31 195 31 491 0 686 -28 174 -79 361
-137 502 -26 61 -47 120 -48 132 0 11 -5 19 -10 15 -5 -3 -6 2 -3 12 5 11 3
15 -5 10 -8 -5 -9 -2 -5 10 5 11 3 15 -5 10 -8 -5 -9 -2 -5 10 5 11 3 15 -5
10 -8 -5 -9 -2 -5 10 4 10 3 15 -3 11 -11 -7 -53 71 -46 84 3 4 -1 17 -10 27
-14 18 -14 17 -4 -6 11 -24 10 -24 -5 -5 -8 11 -13 25 -11 32 3 7 0 15 -6 19
-7 4 -8 3 -4 -4 4 -7 5 -12 3 -12 -10 0 -97 142 -92 149 2 5 -3 15 -13 22 -16
13 -16 13 -2 -6 14 -19 14 -19 -3 -6 -10 8 -16 20 -13 27 2 7 -5 20 -17 31
l-22 18 20 -25 20 -25 -23 19 c-12 11 -21 25 -18 32 2 6 -7 22 -22 35 l-27 24
25 -30 25 -30 -28 25 c-15 13 -26 29 -23 36 2 6 -19 33 -47 60 l-52 49 50 -55
50 -55 -58 55 c-31 30 -57 60 -57 67 0 7 -4 12 -8 11 -4 -2 -46 33 -93 77 -46
44 -73 71 -59 60 14 -11 52 -44 85 -75 59 -54 59 -54 15 -7 -60 65 -217 190
-229 183 -5 -4 -13 -1 -17 5 -4 8 -3 9 4 5 7 -4 12 -5 12 -1 0 8 -151 105
-234 151 -38 21 -66 32 -62 26 6 -9 1 -10 -18 -1 -14 7 -23 16 -19 22 3 6 1 7
-5 3 -7 -4 -20 -2 -29 3 -10 6 -13 11 -8 11 12 1 -56 39 -70 39 -5 0 6 -9 25
-20 44 -25 38 -23 -90 28 -170 67 -380 122 -542 140 -60 7 -61 8 -23 13 22 3
-99 5 -270 5 -170 0 -294 -3 -275 -6z m364 -1125 c31 -5 43 -10 34 -15 -8 -5
11 -8 47 -8 51 1 55 3 30 10 -26 7 -25 8 10 4 22 -3 54 -5 70 -6 l30 -1 -30
-8 -30 -8 33 -1 c17 0 32 3 32 7 0 14 71 0 77 -14 3 -8 15 -14 27 -13 20 0 20
1 1 9 -78 33 170 -24 296 -69 99 -35 219 -88 219 -96 0 -3 -13 1 -30 10 -16 8
-33 15 -37 15 -11 -1 140 -79 152 -79 6 0 -10 11 -35 24 -25 13 -41 24 -37 25
17 1 73 -34 99 -63 17 -17 34 -27 43 -24 8 4 17 1 21 -5 5 -7 2 -8 -6 -3 -9 6
-11 4 -6 -4 5 -7 14 -10 22 -7 7 3 16 0 20 -6 5 -7 2 -8 -6 -3 -9 6 -11 4 -6
-4 5 -7 14 -10 22 -7 7 3 16 0 20 -6 5 -7 2 -8 -6 -3 -9 6 -11 4 -6 -4 5 -7
14 -10 21 -7 8 3 19 -3 27 -12 12 -15 11 -16 -4 -3 -10 7 -18 11 -18 8 0 -2
17 -17 38 -33 33 -25 35 -25 17 -4 -16 19 -11 17 21 -8 22 -17 47 -39 55 -49
7 -10 -2 -4 -21 12 l-35 30 30 -33 c16 -18 35 -30 42 -28 21 9 234 -227 226
-251 -2 -6 1 -15 8 -19 8 -4 9 -3 5 4 -4 7 -5 12 -2 12 9 0 48 -71 42 -77 -3
-4 -6 -1 -6 6 0 7 -5 9 -10 6 -6 -4 -8 -11 -5 -16 3 -5 0 -6 -7 -4 -8 3 -22
-2 -33 -10 -19 -15 -19 -16 5 -5 23 10 24 10 6 -4 -10 -9 -23 -13 -27 -10 -5
3 -21 -2 -36 -11 -16 -9 -19 -13 -8 -10 17 5 18 4 7 -7 -11 -11 -17 -8 -35 17
-12 16 -41 54 -65 83 -23 29 -41 56 -38 61 3 4 -25 36 -62 72 l-67 64 65 -70
65 -69 -75 69 c-92 85 -140 132 -90 90 l35 -30 -30 33 c-16 18 -35 30 -41 28
-7 -3 -18 3 -26 12 -12 16 -11 16 7 2 19 -14 19 -14 6 3 -8 10 -20 16 -27 13
-7 -3 -18 3 -26 12 -11 15 -11 16 2 7 9 -5 4 0 -10 13 -14 12 -30 20 -37 17
-7 -2 -15 1 -19 7 -5 7 -2 8 7 4 8 -4 4 1 -9 11 -33 27 -147 88 -138 75 4 -6
-26 4 -66 22 -250 114 -506 166 -811 166 -326 -1 -591 -62 -869 -201 -54 -27
-98 -47 -98 -44 0 3 39 25 88 49 48 25 84 45 79 45 -25 2 -296 -154 -348 -199
-13 -12 -18 -18 -10 -14 9 4 12 3 7 -4 -4 -6 -13 -9 -20 -6 -7 3 -19 -3 -27
-13 -13 -17 -13 -17 6 -3 18 14 19 14 7 -2 -8 -9 -19 -15 -26 -12 -7 3 -21 -6
-32 -18 l-19 -23 25 20 25 20 -18 -22 c-11 -12 -24 -20 -31 -17 -6 2 -27 -13
-46 -33 l-35 -38 35 30 c19 17 -8 -13 -60 -65 -108 -108 -137 -125 -39 -22
l64 67 -70 -67 -71 -68 -67 0 c-57 0 -67 3 -68 18 0 14 -2 14 -9 -3 -7 -16 -9
-16 -9 -4 -2 51 305 366 344 353 6 -2 24 8 40 22 l30 26 -35 -22 -35 -22 29
25 c16 14 35 23 42 20 6 -2 15 1 20 8 5 8 3 10 -6 4 -9 -5 -11 -4 -6 4 4 6 11
9 16 6 14 -8 151 76 143 88 -3 6 -1 7 5 3 12 -7 183 74 176 85 -4 7 86 46 199
85 64 22 92 24 45 3 -20 -8 -19 -9 6 -4 17 4 35 12 40 20 6 7 29 18 51 24 47
13 68 13 40 1 -19 -8 -19 -9 3 -9 13 -1 22 5 22 14 0 8 5 15 11 15 5 0 7 -4 4
-10 -3 -5 0 -10 8 -10 8 0 17 6 20 14 6 15 166 42 192 32 8 -3 15 -1 15 4 0 6
19 9 43 9 l42 -2 -40 -7 c-39 -7 -39 -7 15 -8 41 -1 51 1 40 9 -12 8 -9 10 13
6 15 -2 30 0 33 4 6 11 82 12 148 3z m111 -581 c49 -5 55 -8 35 -14 -22 -8
-21 -8 8 -5 18 1 35 -1 38 -6 3 -4 15 -8 27 -7 21 1 20 2 -3 10 -18 6 -11 7
24 3 65 -7 82 -14 64 -25 -9 -6 -6 -9 10 -9 15 0 21 4 17 13 -4 6 1 3 10 -8
11 -13 19 -16 22 -8 5 14 62 -2 79 -23 6 -8 18 -12 26 -9 18 7 160 -54 153
-65 -2 -4 7 -12 21 -19 17 -8 23 -8 19 0 -4 6 7 3 24 -5 35 -19 43 -32 9 -16
-22 11 -22 11 -3 -5 11 -8 25 -13 32 -11 7 3 12 0 10 -6 -1 -6 4 -13 12 -16 9
-3 11 0 6 9 -5 8 -5 11 -1 7 4 -3 8 -10 8 -15 1 -13 37 -35 47 -29 5 3 15 -2
22 -12 12 -15 12 -16 -1 -7 -9 6 -7 2 3 -7 11 -10 23 -16 27 -13 5 3 12 0 16
-6 4 -8 3 -9 -4 -5 -27 16 -9 -4 26 -30 l37 -27 -24 29 c-13 16 26 -22 88 -84
70 -70 111 -119 107 -127 -3 -8 0 -17 6 -21 7 -5 8 -2 3 6 -5 9 -4 11 3 6 7
-4 17 -17 24 -29 10 -20 10 -21 -5 -9 -14 12 -16 11 -12 -7 2 -12 0 -19 -6
-15 -5 3 -30 -6 -54 -21 -25 -14 -50 -23 -57 -19 -7 5 -8 3 -4 -5 5 -7 15 -10
25 -6 12 5 13 4 4 -6 -15 -15 -47 7 -39 27 3 7 -3 18 -12 26 -16 12 -16 11 -3
-7 19 -26 13 -20 -104 105 l-90 95 95 -90 95 -90 -90 93 c-49 51 -95 90 -102
88 -6 -3 -17 3 -25 12 -12 16 -11 16 7 2 19 -14 19 -14 6 3 -8 10 -20 16 -27
13 -7 -3 -18 3 -26 12 -11 15 -11 16 2 7 9 -5 5 0 -8 11 -32 28 -107 70 -98
55 5 -7 -23 3 -61 22 -101 51 -243 96 -378 119 -101 17 -148 19 -295 15 -188
-5 -315 -28 -450 -80 -97 -37 -109 -41 -80 -23 30 18 21 21 -14 5 -14 -7 -23
-15 -21 -19 2 -4 -12 -14 -31 -24 -20 -9 -32 -11 -29 -5 4 6 -8 3 -26 -7 -51
-25 -169 -103 -169 -110 0 -4 8 0 18 7 15 13 16 12 4 -3 -8 -9 -19 -15 -26
-12 -7 3 -19 -3 -27 -13 -13 -17 -13 -17 6 -3 18 14 19 14 7 -2 -8 -9 -19 -15
-26 -12 -7 3 -21 -6 -32 -18 l-19 -23 25 20 25 20 -18 -22 c-11 -12 -24 -20
-31 -17 -6 2 -38 -24 -71 -58 l-60 -63 65 60 65 60 -57 -59 -56 -59 -88 2
c-49 1 -91 4 -93 7 -21 20 214 269 243 258 7 -3 19 3 27 13 13 17 13 17 -6 3
-18 -14 -19 -14 -7 2 8 9 19 15 25 12 7 -2 26 8 42 22 17 14 24 22 16 18 -9
-5 -12 -3 -7 5 4 6 12 9 17 6 13 -9 100 45 92 57 -3 7 -1 8 5 4 6 -4 42 9 79
28 37 19 64 35 60 36 -4 0 -34 -14 -67 -30 -33 -17 -60 -28 -60 -25 0 6 60 36
136 70 33 14 50 18 40 10 -11 -8 -17 -15 -13 -15 14 0 63 26 79 43 10 9 24 17
31 17 6 -1 1 -8 -13 -16 -14 -9 -17 -13 -7 -10 11 4 30 9 43 12 13 3 24 12 24
18 0 7 40 22 93 34 97 24 125 27 92 11 -16 -7 -12 -8 14 -4 18 3 44 5 58 5 13
0 22 4 19 9 -4 5 0 11 6 14 19 7 313 7 383 0z m-280 -683 c-13 -5 18 -8 85 -8
74 0 96 3 75 9 -47 13 90 -1 165 -17 94 -19 175 -50 172 -64 -2 -8 3 -10 13
-7 8 4 15 2 15 -4 0 -6 4 -8 9 -5 13 8 42 -4 35 -15 -5 -9 -4 -10 34 -14 13
-1 29 -8 35 -15 10 -10 7 -10 -10 -1 -36 19 -27 5 13 -18 19 -12 39 -19 44
-16 4 3 14 -3 21 -13 13 -16 13 -16 -6 -2 -19 14 -19 14 -6 -3 8 -10 20 -16
27 -13 13 5 163 -144 183 -182 9 -18 8 -23 -8 -31 -10 -6 -21 -8 -24 -5 -5 6
-87 -33 -87 -41 0 -3 14 1 30 10 17 9 30 13 30 11 0 -7 -53 -33 -65 -31 -5 0
-44 36 -85 80 l-74 80 74 -70 75 -70 -70 73 c-38 40 -75 70 -82 68 -6 -3 -17
3 -25 12 -12 16 -11 16 6 2 12 -9 17 -10 12 -3 -8 15 -138 93 -152 93 -5 -1 8
-10 29 -21 59 -31 43 -31 -25 1 -223 104 -516 103 -761 -4 -24 -11 -36 -12
-31 -5 9 16 -85 -36 -117 -64 -14 -12 -18 -17 -9 -12 13 9 13 8 2 -7 -8 -9
-19 -15 -26 -12 -7 3 -21 -6 -32 -18 l-19 -23 25 20 25 20 -18 -22 c-11 -12
-24 -20 -31 -17 -6 2 -27 -13 -46 -33 l-35 -38 38 34 c51 47 47 35 -4 -14 -23
-22 -39 -34 -35 -27 5 7 1 12 -9 12 -9 0 -13 -4 -10 -10 10 -16 -1 -11 -16 7
-12 14 -12 16 0 8 9 -5 12 -4 7 3 -4 6 -14 8 -23 5 -9 -4 -14 -2 -11 3 4 5
-15 8 -43 7 l-49 -1 14 26 c23 44 96 121 109 116 7 -2 24 8 37 23 l25 28 -30
-25 -30 -25 24 27 c13 15 27 25 32 22 10 -6 135 75 132 86 -2 5 5 6 14 3 12
-5 14 -3 8 7 -5 8 -4 11 3 7 13 -9 44 2 37 13 -5 9 144 74 152 67 2 -3 -12
-10 -32 -17 -47 -16 -40 -23 8 -8 20 6 37 17 37 23 0 10 37 21 140 42 20 4 22
2 10 -6 -12 -9 -10 -11 13 -11 16 0 26 4 22 9 -5 9 16 18 45 19 9 0 7 -3 -5
-8z m50 -590 c-15 -6 -7 -9 30 -8 39 0 45 2 25 8 -37 12 -1 11 43 -1 21 -5 35
-14 32 -20 -4 -5 0 -10 7 -11 29 -3 34 -4 54 -16 12 -6 29 -24 39 -39 l18 -28
-23 20 -24 20 20 -26 c10 -15 22 -25 25 -23 10 6 30 -47 36 -96 6 -54 -14
-141 -28 -119 -7 12 -9 11 -9 -2 0 -24 -65 -95 -100 -109 -17 -7 -29 -15 -26
-17 9 -10 66 29 100 69 20 23 36 39 36 35 0 -13 -74 -89 -101 -102 -74 -39
-195 -38 -245 0 -18 15 -18 15 1 9 18 -5 18 -4 2 6 -9 6 -21 9 -26 5 -16 -9
-81 77 -96 129 -19 63 -19 80 1 146 11 37 29 67 61 99 25 25 42 40 38 32 -5
-9 -3 -12 6 -9 8 3 13 10 12 16 -2 6 3 9 10 6 7 -2 24 0 38 6 24 10 24 10 -3
5 -39 -7 -35 2 5 14 41 12 69 13 42 1z"/>
</g>
</svg>
